<?xml version="1.0" encoding="UTF-8" standalone="no"?>
<!-- Generator: Adobe Illustrator 16.0.0, SVG Export Plug-In . SVG Version: 6.00 Build 0)  -->

<svg
   xmlns:dc="http://purl.org/dc/elements/1.1/"
   xmlns:cc="http://creativecommons.org/ns#"
   xmlns:rdf="http://www.w3.org/1999/02/22-rdf-syntax-ns#"
   xmlns:svg="http://www.w3.org/2000/svg"
   xmlns="http://www.w3.org/2000/svg"
   xmlns:sodipodi="http://sodipodi.sourceforge.net/DTD/sodipodi-0.dtd"
   xmlns:inkscape="http://www.inkscape.org/namespaces/inkscape"
   version="1.1"
   id="Capa_1"
   x="0px"
   y="0px"
   width="98.148px"
   height="98.148px"
   viewBox="0 0 98.148 98.148"
   style="enable-background:new 0 0 98.148 98.148;"
   xml:space="preserve"
   inkscape:version="0.91 r13725"
   sodipodi:docname="forward-arrow.svg"><metadata
     id="metadata41"><rdf:RDF><cc:Work
         rdf:about=""><dc:format>image/svg+xml</dc:format><dc:type
           rdf:resource="http://purl.org/dc/dcmitype/StillImage" /></cc:Work></rdf:RDF></metadata><defs
     id="defs39" /><sodipodi:namedview
     pagecolor="#ffffff"
     bordercolor="#666666"
     borderopacity="1"
     objecttolerance="10"
     gridtolerance="10"
     guidetolerance="10"
     inkscape:pageopacity="0"
     inkscape:pageshadow="2"
     inkscape:window-width="690"
     inkscape:window-height="480"
     id="namedview37"
     showgrid="false"
     inkscape:zoom="2.4045319"
     inkscape:cx="49.074001"
     inkscape:cy="49.074001"
     inkscape:window-x="0"
     inkscape:window-y="0"
     inkscape:window-maximized="0"
     inkscape:current-layer="Capa_1" /><g
     id="g3"
     style="fill:#007b21;fill-opacity:1"><path
       d="M33.458,97.562L80.531,50.49c0.75-0.75,0.75-2.078,0-2.828L33.456,0.586C33.081,0.211,32.572,0,32.042,0   c-0.53,0-1.039,0.211-1.414,0.586L17.641,13.573c-0.391,0.391-0.586,0.902-0.586,1.414c0,0.512,0.195,1.023,0.586,1.414   l32.674,32.674L17.642,81.75c-0.751,0.75-0.75,2.078,0,2.828l12.987,12.984C31.411,98.344,32.677,98.344,33.458,97.562z"
       id="path5"
       style="fill:#007b21;fill-opacity:1" /></g><g
     id="g7" /><g
     id="g9" /><g
     id="g11" /><g
     id="g13" /><g
     id="g15" /><g
     id="g17" /><g
     id="g19" /><g
     id="g21" /><g
     id="g23" /><g
     id="g25" /><g
     id="g27" /><g
     id="g29" /><g
     id="g31" /><g
     id="g33" /><g
     id="g35" /></svg>